<svg id="OBJECTS" xmlns="http://www.w3.org/2000/svg" viewBox="0 0 500 500"><defs><style>.cls-1{fill:#c100bb;}</style></defs><polygon class="cls-1" points="279.49 155.13 279.98 217.51 263.59 208.07 263.59 145.93 279.49 155.13"/><polygon class="cls-1" points="306.64 232.89 290.42 223.55 289.94 161.13 306.15 170.51 306.64 232.89"/><polygon class="cls-1" points="333.09 248.13 317.08 238.89 316.63 176.55 332.64 185.78 333.09 248.13"/><path class="cls-1" d="M479,292.32a37.88,37.88,0,0,1-15.82,30.79L343.54,254.17l-.45-62.35L459.9,259.27A38.27,38.27,0,0,1,479,292.32Z"/><path class="cls-1" d="M399.1,306.2,452.71,337a18.25,18.25,0,0,1-3.22,2.22L253.17,452.59V390.45Z"/><path class="cls-1" d="M156.57,93.51,157,155.3,36.84,224.59A37.85,37.85,0,0,1,21.05,193.8a38.31,38.31,0,0,1,19-33.05Z"/><polygon class="cls-1" points="183.54 140.03 167.4 149.33 166.95 87.51 183.05 78.2 183.54 140.03"/><polygon class="cls-1" points="210.06 124.72 193.88 134.06 193.43 72.23 209.61 62.89 210.06 124.72"/><polygon class="cls-1" points="236.41 47.41 236.41 109.55 220.44 118.75 219.99 56.89 236.41 47.41"/><path class="cls-1" d="M113,205.94l-53.61,30.8A18.85,18.85,0,0,0,62.64,239L259,352.33V290.2Z"/></svg>